<?xml version="1.0" encoding="utf-8"?>
<!-- Generator: Adobe Illustrator 25.2.1, SVG Export Plug-In . SVG Version: 6.00 Build 0)  -->
<svg version="1.1" id="Layer_1" xmlns="http://www.w3.org/2000/svg" xmlns:xlink="http://www.w3.org/1999/xlink" x="0px" y="0px"
	 viewBox="0 0 358 68.3" style="enable-background:new 0 0 358 68.3;" xml:space="preserve">
<style type="text/css">
	.st0{fill:#FFFFFF;}
</style>
<g>
	<path class="st0" d="M61.07,0v37.94c0,21.95-11.78,30.37-30.53,30.37C11.78,68.3,0,59.89,0,37.94V0h16.82v33.73
		c0,14.38,5.38,19.85,13.71,19.85c8.33,0,13.71-5.47,13.71-19.85V0H61.07z"/>
	<path class="st0" d="M139.36,0v68.3h-17.08L87.53,25.87V68.3H70.46V0h17.08l34.75,42.86V0H139.36z"/>
	<path class="st0" d="M285.47,18.25c-5.86-1.98-14.62-3.3-21.23-3.3c-5.29,0-13.88,0.83-13.88,4.71c0,7.27,36.34,6.28,36.34,30.72
		c0,12.39-9.83,17.92-24.78,17.92c-9.66,0-20.32-2.31-27.83-4.46v-14.7c3.22,0.91,13.71,4.79,24.36,4.79
		c7.27,0,11.73-1.82,11.73-4.87c0-9.08-36.92-7.43-36.92-29.32C233.27,7.52,244.59,0,261.85,0c8.01,0,18.83,1.49,23.62,3.39V18.25z"
		/>
	<path class="st0" d="M358,24.76c0,18.95-15.37,24.16-31.08,24.16h-13.75V68.3H296.1V0h29.97C340.92,0,358,4.44,358,24.76z
		 M340.75,24.85c0-5.72-3.67-9.48-12.98-9.48h-14.6v18.19h14.6C337.08,33.55,340.75,29.88,340.75,24.85z"/>
	<g>
		<path class="st0" d="M223.88,68.3h-0.02c-6.5-1.32-13.11-2.3-19.84-2.93l-5.42-21.71c1.69-0.49,3.36-1.01,5.03-1.58
			c2.83-0.96,6.15-1.87,8.82-3.54L223.88,68.3z"/>
		<path class="st0" d="M172.29,50.63l-3.68,14.74c-6.73,0.63-13.35,1.61-19.84,2.93h-0.02l2.46-6.41c0,0,0-0.01,0.01-0.01
			c2.82-4.11,7.13-6.63,11.73-8.37C165.98,52.35,169.13,51.45,172.29,50.63"/>
		<path class="st0" d="M154.9,47.21c-1.28-4.69,3.36-7.84,7.02-9.42c4.31-1.86,9.01-2.97,13.56-4.04c4.61-1.08,9.21-2.05,13.81-3.15
			c4.47-1.06,8.97-2.1,13.33-3.57c4.52-1.53,9.23-3.76,11.07-8.47c1.61,4.44-1.16,8.43-4.93,10.53c-4.22,2.35-9.27,3.46-13.91,4.65
			c-4.76,1.22-9.54,2.41-14.32,3.55c-4.76,1.14-9.32,2.1-14.2,3.65C162.38,42.19,157.7,43.95,154.9,47.21"/>
		<path class="st0" d="M209.14,20.24c-1.48,1.5-3.49,2.47-5.43,3.22c-4.7,1.82-9.54,3.18-14.44,4.34c-8.75,2.1-10.68,2-20.57,4.86
			c-5.98,1.73-8.5,3.39-9.69,4.47c-0.12-2.62,1.72-4.43,3.87-5.66L174.97,0h9.94l-6.69,26.81c5.1-1.13,10.25-2.19,15.3-3.56
			L187.72,0h9.94l7.4,19.28c2.3-1.14,4.34-2.67,5.48-5.05C211.44,16.24,210.63,18.74,209.14,20.24"/>
		<path class="st0" d="M151.29,58.95c-1.01-6.38,4.8-10.84,9.9-13.19c5.91-2.72,12.38-3.95,18.68-5.46
			c6.71-1.6,13.43-3.26,20.07-5.13c6.29-1.77,13.99-3.95,16.85-10.46c1.33,2.99,0.15,6.77-2.03,9.04
			c-2.82,2.94-7.39,4.11-11.12,5.38c-5.19,1.77-10.53,3.11-15.83,4.54c-3.04,0.82-6.08,1.61-9.13,2.4
			c-5.23,1.36-10.59,2.57-15.64,4.49C158.43,52.32,154.11,54.83,151.29,58.95"/>
	</g>
</g>
</svg>
