<svg width="159" height="71" viewBox="0 0 159 71" fill="none" xmlns="http://www.w3.org/2000/svg">
<path d="M4.53223 51.4346L4.31641 51.8828C4.31641 52.2038 4.76465 52.5137 5.66113 52.8125C6.56868 53.1003 7.55924 53.2441 8.63281 53.2441C9.71745 53.2441 10.9072 53.0837 12.2021 52.7627C13.4971 52.4417 14.6204 52.0488 15.5723 51.584C16.5352 51.1191 17.3265 50.6322 17.9463 50.123C18.5771 49.6139 18.8926 49.1712 18.8926 48.7949C18.8926 48.319 18.3392 47.8763 17.2324 47.4668C16.1257 47.0573 14.5153 46.609 12.4014 46.1221C10.2985 45.624 8.75456 44.9987 7.76953 44.2461C6.79557 43.4935 6.30859 42.5804 6.30859 41.5068C6.30859 40.4222 6.69596 39.3874 7.4707 38.4023C8.24544 37.4173 9.2526 36.543 10.4922 35.7793C11.7428 35.0156 13.1042 34.335 14.5762 33.7373C17.6198 32.5088 20.4421 31.8945 23.043 31.8945C24.0391 31.8945 24.9189 31.9831 25.6826 32.1602C27.1436 32.5033 27.874 32.957 27.874 33.5215C27.874 34.0859 27.8242 34.4733 27.7246 34.6836C27.625 34.8828 27.542 35.0156 27.4756 35.082C27.4202 35.1484 27.3428 35.2148 27.2432 35.2812C27.1546 35.3477 27.0882 35.3975 27.0439 35.4307C26.557 35.8402 25.2233 36.0947 23.043 36.1943C22.2904 36.2275 21.8809 36.2663 21.8145 36.3105C21.748 36.3548 21.6872 36.377 21.6318 36.377C21.5876 36.377 21.5322 36.3327 21.4658 36.2441C21.3994 36.1556 21.3662 36.0117 21.3662 35.8125C21.3662 35.6133 21.582 35.248 22.0137 34.7168C20.6634 34.7943 19.2191 35.1042 17.6807 35.6465C16.1533 36.1888 14.8252 36.8031 13.6963 37.4893C12.5674 38.1644 11.6266 38.834 10.874 39.498C10.1214 40.151 9.74512 40.6159 9.74512 40.8926C9.74512 41.1582 9.82812 41.3796 9.99414 41.5566C10.459 42.0547 11.7484 42.5749 13.8623 43.1172C16.0537 43.6816 17.5146 44.1354 18.2451 44.4785C18.9756 44.8216 19.5788 45.1481 20.0547 45.458C20.5417 45.7679 20.929 46.0833 21.2168 46.4043C21.8919 47.179 22.2295 47.9648 22.2295 48.7617C22.2295 49.5586 22.0137 50.3057 21.582 51.0029C21.1615 51.7002 20.5195 52.3753 19.6562 53.0283C18.804 53.6813 17.7969 54.2624 16.6348 54.7715C14.0892 55.9115 11.0566 56.4814 7.53711 56.4814C4.9694 56.4814 3.33138 55.8008 2.62305 54.4395C2.4349 54.0964 2.34082 53.7422 2.34082 53.377C2.34082 53.0007 2.42383 52.6631 2.58984 52.3643C2.76693 52.0654 2.97721 51.8385 3.2207 51.6836C3.69661 51.3848 4.03418 51.2354 4.2334 51.2354C4.43262 51.2354 4.53223 51.3018 4.53223 51.4346ZM34.7645 52.3145C35.34 51.9492 35.7107 51.7002 35.8768 51.5674C36.0428 51.4235 36.2365 51.2575 36.4578 51.0693C36.6792 50.8812 36.8618 50.7871 37.0057 50.7871C37.227 50.7871 37.3377 51.0417 37.3377 51.5508C37.3377 52.0488 37.0887 52.5911 36.5906 53.1777C36.1036 53.7533 35.4949 54.2458 34.7645 54.6553C34.034 55.0537 33.2537 55.4023 32.4236 55.7012C30.7745 56.3099 29.3689 56.6143 28.2068 56.6143C27.0558 56.6143 26.0154 56.238 25.0857 55.4854C24.1561 54.7217 23.6912 53.7311 23.6912 52.5137C23.6912 51.2852 23.9956 50.0622 24.6043 48.8447C25.213 47.6162 25.9933 46.5426 26.9451 45.624C27.908 44.6943 29.0203 43.9417 30.282 43.3662C31.5548 42.7907 32.811 42.5029 34.0506 42.5029C34.6482 42.5029 35.185 42.6745 35.6609 43.0176C36.1368 43.3607 36.3748 43.8311 36.3748 44.4287C36.3748 45.0264 36.076 45.7458 35.4783 46.5869C34.8917 47.417 34.2941 47.832 33.6854 47.832C32.977 47.832 32.6229 47.4945 32.6229 46.8193C32.6229 46.6423 32.7889 46.3268 33.1209 45.873C33.4529 45.4193 33.6189 45.1149 33.6189 44.96C33.6189 44.7939 33.5581 44.7109 33.4363 44.7109C32.8276 44.7109 32.1746 44.9212 31.4773 45.3418C30.7801 45.7624 30.1437 46.2051 29.5682 46.6699C29.0037 47.1348 28.4669 47.6549 27.9578 48.2305C26.851 49.4811 26.2977 50.7816 26.2977 52.1318C26.2977 52.6742 26.4692 53.1445 26.8123 53.543C27.1665 53.9303 27.7531 54.124 28.5721 54.124C29.4021 54.124 30.2322 54.0299 31.0623 53.8418C31.8924 53.6426 32.573 53.4323 33.1043 53.2109C33.6466 52.9785 34.2 52.6797 34.7645 52.3145ZM51.2008 51.1025C51.2783 51.6117 51.317 52.0156 51.317 52.3145C51.317 52.6022 51.2617 52.8568 51.151 53.0781C51.0514 53.2884 50.8189 53.5928 50.4537 53.9912C50.0995 54.3786 49.6734 54.7715 49.1754 55.1699C47.9579 56.1328 46.7128 56.6143 45.44 56.6143C43.6139 56.6143 42.7008 55.8063 42.7008 54.1904C42.7008 52.7848 43.9238 49.9847 46.3697 45.79C46.4583 45.6351 46.5191 45.5244 46.5523 45.458C45.7001 46.0557 44.0676 47.6882 41.6549 50.3555C39.2532 53.0117 37.6539 54.8932 36.857 56C36.7906 56.0996 36.6246 56.2103 36.359 56.332C36.0934 56.4538 35.8831 56.5146 35.7281 56.5146C35.5842 56.5146 35.4293 56.4648 35.2633 56.3652C35.0862 56.2767 34.9755 56.2324 34.9313 56.2324C34.7874 56.2324 34.7154 56.1826 34.7154 56.083C34.7154 55.9945 34.9146 55.4909 35.3131 54.5723C35.7005 53.6426 36.2151 52.4915 36.857 51.1191C38.6168 47.334 41.2343 42.4089 44.7096 36.3438C45.927 34.2188 46.8788 32.7135 47.565 31.8281C48.052 31.1973 48.871 30.8818 50.0221 30.8818C50.2656 30.8818 50.4039 30.9538 50.4371 31.0977C50.4703 31.2415 50.4869 31.3965 50.4869 31.5625C50.4869 31.7285 50.4537 31.8945 50.3873 32.0605L48.6109 34.833C45.0914 40.3226 42.4407 44.8714 40.6588 48.4795C42.3854 46.3766 44.0621 44.7552 45.6891 43.6152C46.6962 42.8958 47.4488 42.5361 47.9469 42.5361C48.456 42.5361 48.9153 42.6191 49.3248 42.7852C49.7343 42.9401 49.9391 43.3219 49.9391 43.9307C49.9391 44.152 49.5794 44.971 48.86 46.3877C46.7018 50.6377 45.6227 53.0007 45.6227 53.4766C45.6227 53.9414 45.8163 54.1738 46.2037 54.1738C46.7682 54.1738 47.637 53.626 48.8102 52.5303C49.6956 51.7002 50.2545 51.1689 50.4869 50.9365C50.6197 50.8369 50.7415 50.7871 50.8521 50.7871C51.0624 50.7871 51.1786 50.8923 51.2008 51.1025ZM67.4213 43.665L67.2221 42.8682C67.2221 42.4144 67.377 42.0602 67.6869 41.8057C68.0079 41.54 68.4063 41.4072 68.8822 41.4072C69.8119 41.4072 70.2768 41.9993 70.2768 43.1836C70.2768 44.0358 69.8562 45.2145 69.015 46.7197C68.1739 48.2139 67.1778 49.6637 66.0268 51.0693C64.8868 52.4639 63.6749 53.6813 62.391 54.7217C61.1072 55.751 60.1166 56.2656 59.4193 56.2656C58.7331 56.2656 58.2462 56.0775 57.9584 55.7012C57.6706 55.3249 57.5268 54.9652 57.5268 54.6221C57.5268 54.2679 57.5434 53.9359 57.5766 53.626C57.6983 52.5413 57.9971 51.5065 58.473 50.5215C57.2888 52.071 56.016 53.4655 54.6547 54.7051C53.2934 55.9336 52.1534 56.5479 51.2348 56.5479C50.7921 56.5479 50.4379 56.415 50.1723 56.1494C49.9066 55.8838 49.7738 55.4355 49.7738 54.8047C49.7738 54.1628 50.1557 52.9674 50.9193 51.2188C51.683 49.459 52.4135 48.0479 53.1107 46.9854C52.8562 47.1403 52.6293 47.2178 52.4301 47.2178C52.2419 47.2178 52.0316 47.1126 51.7992 46.9023C51.5779 46.681 51.4672 46.5094 51.4672 46.3877C51.4672 46.266 51.5502 46.0889 51.7162 45.8564C51.8822 45.624 52.5186 45.054 53.6254 44.1465C54.7322 43.2279 55.4903 42.7686 55.8998 42.7686C56.3093 42.7686 56.6967 42.846 57.0619 43.001C57.4382 43.1559 57.6264 43.3717 57.6264 43.6484C57.6264 43.9141 56.8572 45.4912 55.3187 48.3799C53.7803 51.2686 53.0111 52.8346 53.0111 53.0781C53.0111 53.1113 53.0222 53.1279 53.0443 53.1279C53.2768 53.1279 54.4333 51.9437 56.5141 49.5752C58.6059 47.2067 60.2494 45.2588 61.4447 43.7314C61.6107 43.4548 61.8598 43.3164 62.1918 43.3164L62.3412 43.333L63.2543 43.1504C63.3982 43.1504 63.5365 43.2057 63.6693 43.3164C63.8132 43.4271 63.8852 43.5267 63.8852 43.6152C63.8852 43.7038 63.6859 44.1022 63.2875 44.8105C62.9001 45.5189 62.2637 46.8581 61.3783 48.8281C60.4929 50.7982 60.0502 52.1816 60.0502 52.9785C60.0502 53.1777 60.1221 53.2773 60.266 53.2773C60.6866 53.2773 61.5609 52.5192 62.8891 51.0029C64.2283 49.4756 65.3184 48.0146 66.1596 46.6201C67.0007 45.2256 67.4213 44.2406 67.4213 43.665ZM81.8654 43.3828C82.7066 43.3828 83.1272 43.6706 83.1272 44.2461C83.1272 44.556 83.0552 44.7829 82.9113 44.9268C82.7675 45.0706 82.4576 45.5521 81.9816 46.3711C81.5168 47.179 80.9966 48.2194 80.4211 49.4922C79.8566 50.7539 79.4914 51.833 79.3254 52.7295C79.2922 52.8402 79.2756 52.9951 79.2756 53.1943C79.2756 53.8031 79.4416 54.1074 79.7736 54.1074C80.1057 54.1074 80.4986 53.9525 80.9523 53.6426C81.4061 53.3216 81.8101 52.984 82.1643 52.6299C82.5184 52.2646 82.8615 51.8939 83.1936 51.5176C83.5367 51.1413 83.7414 50.9255 83.8078 50.8701C83.8742 50.8148 83.9738 50.7871 84.1066 50.7871C84.3169 50.7871 84.4442 50.9476 84.4885 51.2686C84.5328 51.5895 84.5549 51.9215 84.5549 52.2646C84.5549 52.6077 84.5217 52.8457 84.4553 52.9785C84.1343 53.6094 83.426 54.3675 82.3303 55.2529C81.2456 56.1383 80.2551 56.5811 79.3586 56.5811C78.4732 56.5811 77.8202 56.3099 77.3996 55.7676C76.979 55.2253 76.7688 54.6276 76.7688 53.9746C76.7688 53.3105 76.8794 52.7295 77.1008 52.2314C76.1822 53.4268 75.1252 54.4395 73.9299 55.2695C72.7456 56.0996 71.7772 56.5146 71.0246 56.5146C70.272 56.5146 69.6578 56.2878 69.1818 55.834C68.5731 55.2695 68.2688 54.4893 68.2688 53.4932C68.2688 52.486 68.4901 51.4788 68.9328 50.4717C69.3866 49.4535 69.9787 48.5293 70.7092 47.6992C71.4397 46.8581 72.2421 46.0944 73.1164 45.4082C74.9536 43.9694 76.647 43.25 78.1965 43.25C78.7941 43.25 79.2811 43.3496 79.6574 43.5488C80.0337 43.748 80.2717 43.9971 80.3713 44.2959C80.6369 43.8975 80.8583 43.6484 81.0354 43.5488C81.2235 43.4382 81.5002 43.3828 81.8654 43.3828ZM79.6574 45.2256C77.7648 45.2256 75.8059 46.277 73.7805 48.3799C73.0611 49.1325 72.397 50.0345 71.7883 51.0859C71.1906 52.1374 70.8918 52.8568 70.8918 53.2441C70.8918 53.6315 71.0025 53.8252 71.2238 53.8252C71.5337 53.8252 72.397 53.2165 73.8137 51.999C75.2303 50.7705 76.1711 49.8685 76.6359 49.293C77.1451 48.651 78.1522 47.2952 79.6574 45.2256ZM91.9102 53.4434C91.9102 53.9303 92.2422 54.1738 92.9062 54.1738C93.2604 54.1738 93.7031 53.9967 94.2344 53.6426C94.7767 53.2884 95.2637 52.901 95.6953 52.4805C96.8464 51.3405 97.4993 50.7705 97.6543 50.7705C97.9421 50.7705 98.0859 51.1855 98.0859 52.0156C98.0859 52.8457 97.8258 53.4157 97.3057 53.7256C95.723 55.1533 94.5 56.0221 93.6367 56.332C93.1497 56.498 92.613 56.5755 92.0264 56.5645C91.4398 56.5534 90.8587 56.2988 90.2832 55.8008C89.7077 55.3027 89.4199 54.6995 89.4199 53.9912C89.4199 53.2718 89.6081 52.4583 89.9844 51.5508C90.3607 50.6432 90.7425 49.8685 91.1299 49.2266C91.5283 48.5736 92.0153 47.821 92.5908 46.9688C93.1663 46.1055 93.4707 45.5687 93.5039 45.3584L93.4707 45.3252C93.1055 45.3584 92.1979 46.0778 90.748 47.4834C89.3092 48.889 88.1195 50.112 87.1787 51.1523C86.238 52.1927 85.1146 53.5817 83.8086 55.3193C83.4434 55.7952 83.1445 56.0332 82.9121 56.0332C82.6797 56.0332 82.3698 55.9613 81.9824 55.8174C81.584 55.6624 81.3405 55.5518 81.252 55.4854C81.1634 55.4189 81.1191 55.3193 81.1191 55.1865C81.1191 55.0537 81.1579 54.8932 81.2354 54.7051C81.3128 54.5059 81.3903 54.3454 81.4678 54.2236C81.5342 54.0908 81.6504 53.8916 81.8164 53.626C81.9824 53.3604 82.3089 52.8014 82.7959 51.9492C83.2939 51.0859 84.0521 49.8021 85.0703 48.0977C86.0885 46.3932 86.6973 45.3639 86.8965 45.0098C87.3171 44.2793 87.6602 43.748 87.9258 43.416C88.4238 42.7852 89.265 42.4697 90.4492 42.4697C90.7148 42.4697 90.8477 42.6357 90.8477 42.9678C90.8477 43.488 90.3662 44.4674 89.4033 45.9062L88.7061 46.9521C90.6208 44.8271 92.2367 43.4824 93.5537 42.918C94.1956 42.6413 94.7712 42.5029 95.2803 42.5029C95.8005 42.5029 96.21 42.6413 96.5088 42.918C96.8187 43.1947 96.9736 43.5046 96.9736 43.8477C96.9736 44.1797 96.8574 44.5837 96.625 45.0596C96.3926 45.5244 96.1546 45.945 95.9111 46.3213C95.6787 46.6865 95.3688 47.1514 94.9814 47.7158C94.5941 48.2803 94.3838 48.5902 94.3506 48.6455C94.3174 48.6898 94.2288 48.8226 94.085 49.0439C93.9521 49.2542 93.8525 49.4092 93.7861 49.5088C93.7197 49.6084 93.609 49.7855 93.4541 50.04C93.2992 50.2835 93.1719 50.4883 93.0723 50.6543C92.9837 50.8203 92.8675 51.0251 92.7236 51.2686C92.5908 51.512 92.4801 51.7223 92.3916 51.8994C92.3141 52.0765 92.2311 52.2702 92.1426 52.4805C91.9876 52.8678 91.9102 53.1888 91.9102 53.4434ZM108.147 34.6172L108.828 34.7832C108.928 34.7832 109.016 34.833 109.094 34.9326C109.171 35.0322 109.21 35.1263 109.21 35.2148C109.21 35.3034 109.094 35.5413 108.861 35.9287C108.629 36.3161 108.352 36.7588 108.031 37.2568C107.721 37.7438 107.555 38.0094 107.533 38.0537C108.396 37.9873 109.005 37.9541 109.359 37.9541C109.724 37.9541 109.973 37.9818 110.106 38.0371C110.239 38.0814 110.388 38.2197 110.554 38.4521C110.732 38.6735 110.892 38.8451 111.036 38.9668C111.18 39.0775 111.252 39.249 111.252 39.4814C111.252 39.7139 111.108 39.9131 110.82 40.0791C110.543 40.234 110.245 40.3281 109.924 40.3613C107.356 40.6159 105.939 40.7487 105.674 40.7598C104.777 42.1322 103.521 44.2738 101.905 47.1846C100.3 50.0843 99.448 51.8994 99.3484 52.6299C99.3042 52.9619 99.282 53.2331 99.282 53.4434C99.282 53.875 99.5089 54.0908 99.9627 54.0908C100.416 54.0908 100.92 53.9193 101.473 53.5762C102.027 53.222 102.536 52.8402 103.001 52.4307C104.24 51.3239 104.904 50.7705 104.993 50.7705C105.281 50.7705 105.425 51.2686 105.425 52.2646C105.425 52.807 105.176 53.2939 104.678 53.7256C103.56 54.6885 102.619 55.4134 101.855 55.9004C101.092 56.3874 100.328 56.6309 99.5643 56.6309C99.3982 56.6309 99.2433 56.6143 99.0994 56.5811C98.214 56.415 97.561 56.0941 97.1404 55.6182C96.7309 55.1312 96.5262 54.4782 96.5262 53.6592C96.5372 52.8402 96.7807 51.8496 97.2566 50.6875C97.7436 49.5143 98.3523 48.2692 99.0828 46.9521C100.278 44.805 101.473 42.7907 102.669 40.9092L102.038 40.9922C100.754 41.1361 100.007 41.208 99.7967 41.208H99.6473C99.3263 41.208 99.0164 41.1471 98.7176 41.0254C98.4187 40.8926 98.2693 40.7321 98.2693 40.5439C98.2693 40.3558 98.3468 40.1732 98.5018 39.9961C98.6678 39.819 98.7674 39.6807 98.8006 39.5811C98.8781 39.3376 99.1658 39.0664 99.6639 38.7676C100.173 38.4688 100.555 38.3138 100.809 38.3027C101.064 38.2806 101.307 38.264 101.54 38.2529C101.783 38.2419 102.049 38.2308 102.337 38.2197C102.636 38.2087 102.862 38.1976 103.017 38.1865L104.512 38.1201C105.441 36.7256 106.078 35.8291 106.421 35.4307C106.775 35.0322 106.98 34.8164 107.035 34.7832C107.09 34.7389 107.201 34.7168 107.367 34.7168L108.147 34.6172ZM115.652 43.582C115.652 44.3125 115.353 44.9544 114.755 45.5078C114.169 46.0612 113.499 46.3379 112.747 46.3379C112.503 46.3379 112.343 46.2826 112.265 46.1719C112.188 46.0501 112.149 45.8952 112.149 45.707C112.149 45.5189 112.171 45.3363 112.215 45.1592C111.817 45.292 111.374 45.4967 110.887 45.7734C110.4 46.0501 109.803 46.4596 109.094 47.002C108.386 47.5443 108.032 47.9482 108.032 48.2139C108.032 48.3024 108.159 48.3467 108.414 48.3467C108.679 48.3467 109.083 48.2581 109.626 48.0811C110.168 47.8929 110.544 47.7988 110.754 47.7988C110.976 47.7988 111.12 47.8099 111.186 47.832C111.33 47.9095 111.485 48.0811 111.651 48.3467C111.817 48.6012 111.9 48.806 111.9 48.9609C111.9 49.1048 111.756 49.2985 111.468 49.542C111.181 49.7855 110.854 49.9736 110.489 50.1064C110.124 50.2282 109.88 50.3223 109.758 50.3887C107.423 51.6947 106.255 52.5911 106.255 53.0781C106.255 53.9414 106.991 54.373 108.463 54.373C109.404 54.373 110.351 54.0742 111.302 53.4766C112.11 52.9674 112.835 52.4528 113.477 51.9326C114.13 51.4014 114.54 51.0749 114.706 50.9531C114.883 50.8314 115.016 50.7705 115.104 50.7705C115.392 50.7705 115.536 51.0915 115.536 51.7334C115.536 52.3753 115.497 52.8014 115.42 53.0117C115.342 53.2109 115.121 53.46 114.755 53.7588C112.387 55.6846 110.146 56.6475 108.032 56.6475C106.903 56.6475 106.001 56.4925 105.326 56.1826C104.086 55.6182 103.466 54.7549 103.466 53.5928C103.466 52.0654 104.523 50.9089 106.637 50.123C106.217 49.9349 105.946 49.6969 105.824 49.4092C105.702 49.1104 105.641 48.64 105.641 47.998C105.641 47.3451 105.94 46.6589 106.538 45.9395C107.146 45.209 107.888 44.6113 108.762 44.1465C110.71 43.0951 112.448 42.5693 113.975 42.5693C114.34 42.5693 114.711 42.6579 115.088 42.835C115.464 43.012 115.652 43.2611 115.652 43.582ZM117.047 52.6797L117.031 52.9453C117.031 53.222 117.136 53.46 117.346 53.6592C117.556 53.8584 117.75 53.958 117.927 53.958C119.255 53.958 120.428 53.7588 121.447 53.3604C122.476 52.9619 122.991 52.5635 122.991 52.165C122.991 51.9769 122.802 51.8164 122.426 51.6836C122.061 51.5397 121.436 51.3682 120.55 51.1689C119.676 50.9587 119.039 50.7982 118.641 50.6875C118.243 50.5658 117.927 50.4551 117.695 50.3555C117.462 50.2559 117.224 50.1175 116.981 49.9404C116.461 49.5752 116.201 49.0329 116.201 48.3135C116.201 47.583 116.466 46.8636 116.997 46.1553C117.54 45.4359 118.215 44.8216 119.023 44.3125C119.831 43.8034 120.7 43.3551 121.629 42.9678C123.467 42.2041 125.01 41.8223 126.261 41.8223C127.49 41.8223 128.248 42.0879 128.536 42.6191C128.624 42.8073 128.668 43.0176 128.668 43.25V43.3662C128.668 43.9528 128.541 44.4121 128.287 44.7441C128.043 45.0762 127.65 45.375 127.108 45.6406C126.577 45.9062 126.15 46.0391 125.829 46.0391C125.52 46.0391 125.32 46.0169 125.232 45.9727C125.154 45.9284 125.088 45.873 125.033 45.8066C124.977 45.7292 124.905 45.6738 124.817 45.6406C124.739 45.6074 124.701 45.5244 124.701 45.3916C124.701 45.2588 124.756 45.126 124.867 44.9932C124.977 44.8493 125.055 44.6999 125.099 44.5449C124.369 44.5781 123.605 44.7497 122.808 45.0596C122.011 45.3584 121.325 45.696 120.749 46.0723C120.185 46.4486 119.715 46.8083 119.338 47.1514C118.962 47.4945 118.774 47.749 118.774 47.915C118.774 48.07 119.028 48.1973 119.537 48.2969C121.829 48.7507 123.334 49.1436 124.053 49.4756C124.773 49.8076 125.271 50.1839 125.547 50.6045C125.824 51.0251 125.962 51.4069 125.962 51.75C125.962 52.4583 125.68 53.1279 125.116 53.7588C124.551 54.3896 123.854 54.9043 123.024 55.3027C121.242 56.1771 119.687 56.6143 118.359 56.6143C117.042 56.6143 116.129 56.4095 115.62 56C115.121 55.6016 114.872 55.1257 114.872 54.5723C114.872 54.0189 115.011 53.5098 115.287 53.0449C115.575 52.569 115.94 52.3311 116.383 52.3311C116.826 52.3311 117.047 52.4473 117.047 52.6797Z" fill="white"/>
<path d="M58.887 18.563C58.887 19.085 58.707 19.52 58.347 19.868C57.993 20.21 57.45 20.381 56.718 20.381H55.512V23H54.693V16.727H56.718C57.426 16.727 57.963 16.898 58.329 17.24C58.701 17.582 58.887 18.023 58.887 18.563ZM56.718 19.706C57.174 19.706 57.51 19.607 57.726 19.409C57.942 19.211 58.05 18.929 58.05 18.563C58.05 17.789 57.606 17.402 56.718 17.402H55.512V19.706H56.718ZM60.9239 16.34V23H60.1049V16.34H60.9239ZM62.2138 20.516C62.2138 20.012 62.3158 19.571 62.5198 19.193C62.7238 18.809 63.0028 18.512 63.3568 18.302C63.7168 18.092 64.1158 17.987 64.5538 17.987C64.9858 17.987 65.3608 18.08 65.6788 18.266C65.9968 18.452 66.2338 18.686 66.3898 18.968V18.068H67.2178V23H66.3898V22.082C66.2278 22.37 65.9848 22.61 65.6608 22.802C65.3428 22.988 64.9708 23.081 64.5448 23.081C64.1068 23.081 63.7108 22.973 63.3568 22.757C63.0028 22.541 62.7238 22.238 62.5198 21.848C62.3158 21.458 62.2138 21.014 62.2138 20.516ZM66.3898 20.525C66.3898 20.153 66.3148 19.829 66.1648 19.553C66.0148 19.277 65.8108 19.067 65.5528 18.923C65.3008 18.773 65.0218 18.698 64.7158 18.698C64.4098 18.698 64.1308 18.77 63.8788 18.914C63.6268 19.058 63.4258 19.268 63.2758 19.544C63.1258 19.82 63.0508 20.144 63.0508 20.516C63.0508 20.894 63.1258 21.224 63.2758 21.506C63.4258 21.782 63.6268 21.995 63.8788 22.145C64.1308 22.289 64.4098 22.361 64.7158 22.361C65.0218 22.361 65.3008 22.289 65.5528 22.145C65.8108 21.995 66.0148 21.782 66.1648 21.506C66.3148 21.224 66.3898 20.897 66.3898 20.525ZM69.8008 18.743V21.65C69.8008 21.89 69.8518 22.061 69.9538 22.163C70.0558 22.259 70.2328 22.307 70.4848 22.307H71.0878V23H70.3498C69.8938 23 69.5518 22.895 69.3238 22.685C69.0958 22.475 68.9818 22.13 68.9818 21.65V18.743H68.3428V18.068H68.9818V16.826H69.8008V18.068H71.0878V18.743H69.8008ZM71.9741 20.516C71.9741 20.012 72.0761 19.571 72.2801 19.193C72.4841 18.809 72.7631 18.512 73.1171 18.302C73.4771 18.092 73.8761 17.987 74.3141 17.987C74.7461 17.987 75.1211 18.08 75.4391 18.266C75.7571 18.452 75.9941 18.686 76.1501 18.968V18.068H76.9781V23H76.1501V22.082C75.9881 22.37 75.7451 22.61 75.4211 22.802C75.1031 22.988 74.7311 23.081 74.3051 23.081C73.8671 23.081 73.4711 22.973 73.1171 22.757C72.7631 22.541 72.4841 22.238 72.2801 21.848C72.0761 21.458 71.9741 21.014 71.9741 20.516ZM76.1501 20.525C76.1501 20.153 76.0751 19.829 75.9251 19.553C75.7751 19.277 75.5711 19.067 75.3131 18.923C75.0611 18.773 74.7821 18.698 74.4761 18.698C74.1701 18.698 73.8911 18.77 73.6391 18.914C73.3871 19.058 73.1861 19.268 73.0361 19.544C72.8861 19.82 72.8111 20.144 72.8111 20.516C72.8111 20.894 72.8861 21.224 73.0361 21.506C73.1861 21.782 73.3871 21.995 73.6391 22.145C73.8911 22.289 74.1701 22.361 74.4761 22.361C74.7821 22.361 75.0611 22.289 75.3131 22.145C75.5711 21.995 75.7751 21.782 75.9251 21.506C76.0751 21.224 76.1501 20.897 76.1501 20.525ZM80.5691 18.743H79.5341V23H78.7151V18.743H78.0761V18.068H78.7151V17.717C78.7151 17.165 78.8561 16.763 79.1381 16.511C79.4261 16.253 79.8851 16.124 80.5151 16.124V16.808C80.1551 16.808 79.9001 16.88 79.7501 17.024C79.6061 17.162 79.5341 17.393 79.5341 17.717V18.068H80.5691V18.743ZM83.8751 23.081C83.4131 23.081 82.9931 22.976 82.6151 22.766C82.2431 22.556 81.9491 22.259 81.7331 21.875C81.5231 21.485 81.4181 21.035 81.4181 20.525C81.4181 20.021 81.5261 19.577 81.7421 19.193C81.9641 18.803 82.2641 18.506 82.6421 18.302C83.0201 18.092 83.4431 17.987 83.9111 17.987C84.3791 17.987 84.8021 18.092 85.1801 18.302C85.5581 18.506 85.8551 18.8 86.0711 19.184C86.2931 19.568 86.4041 20.015 86.4041 20.525C86.4041 21.035 86.2901 21.485 86.0621 21.875C85.8401 22.259 85.5371 22.556 85.1531 22.766C84.7691 22.976 84.3431 23.081 83.8751 23.081ZM83.8751 22.361C84.1691 22.361 84.4451 22.292 84.7031 22.154C84.9611 22.016 85.1681 21.809 85.3241 21.533C85.4861 21.257 85.5671 20.921 85.5671 20.525C85.5671 20.129 85.4891 19.793 85.3331 19.517C85.1771 19.241 84.9731 19.037 84.7211 18.905C84.4691 18.767 84.1961 18.698 83.9021 18.698C83.6021 18.698 83.3261 18.767 83.0741 18.905C82.8281 19.037 82.6301 19.241 82.4801 19.517C82.3301 19.793 82.2551 20.129 82.2551 20.525C82.2551 20.927 82.3271 21.266 82.4711 21.542C82.6211 21.818 82.8191 22.025 83.0651 22.163C83.3111 22.295 83.5811 22.361 83.8751 22.361ZM88.4999 18.869C88.6439 18.587 88.8479 18.368 89.1119 18.212C89.3819 18.056 89.7089 17.978 90.0929 17.978V18.824H89.8769C88.9589 18.824 88.4999 19.322 88.4999 20.318V23H87.6809V18.068H88.4999V18.869ZM97.1693 17.978C97.5533 17.978 97.8953 18.059 98.1953 18.221C98.4953 18.377 98.7323 18.614 98.9063 18.932C99.0803 19.25 99.1673 19.637 99.1673 20.093V23H98.3573V20.21C98.3573 19.718 98.2343 19.343 97.9883 19.085C97.7483 18.821 97.4213 18.689 97.0073 18.689C96.5813 18.689 96.2423 18.827 95.9903 19.103C95.7383 19.373 95.6123 19.766 95.6123 20.282V23H94.8023V20.21C94.8023 19.718 94.6793 19.343 94.4333 19.085C94.1933 18.821 93.8663 18.689 93.4523 18.689C93.0263 18.689 92.6873 18.827 92.4353 19.103C92.1833 19.373 92.0573 19.766 92.0573 20.282V23H91.2383V18.068H92.0573V18.779C92.2193 18.521 92.4353 18.323 92.7053 18.185C92.9813 18.047 93.2843 17.978 93.6143 17.978C94.0283 17.978 94.3943 18.071 94.7123 18.257C95.0303 18.443 95.2673 18.716 95.4233 19.076C95.5613 18.728 95.7893 18.458 96.1073 18.266C96.4253 18.074 96.7793 17.978 97.1693 17.978ZM100.405 20.516C100.405 20.012 100.507 19.571 100.711 19.193C100.915 18.809 101.194 18.512 101.548 18.302C101.908 18.092 102.307 17.987 102.745 17.987C103.177 17.987 103.552 18.08 103.87 18.266C104.188 18.452 104.425 18.686 104.581 18.968V18.068H105.409V23H104.581V22.082C104.419 22.37 104.176 22.61 103.852 22.802C103.534 22.988 103.162 23.081 102.736 23.081C102.298 23.081 101.902 22.973 101.548 22.757C101.194 22.541 100.915 22.238 100.711 21.848C100.507 21.458 100.405 21.014 100.405 20.516ZM104.581 20.525C104.581 20.153 104.506 19.829 104.356 19.553C104.206 19.277 104.002 19.067 103.744 18.923C103.492 18.773 103.213 18.698 102.907 18.698C102.601 18.698 102.322 18.77 102.07 18.914C101.818 19.058 101.617 19.268 101.467 19.544C101.317 19.82 101.242 20.144 101.242 20.516C101.242 20.894 101.317 21.224 101.467 21.506C101.617 21.782 101.818 21.995 102.07 22.145C102.322 22.289 102.601 22.361 102.907 22.361C103.213 22.361 103.492 22.289 103.744 22.145C104.002 21.995 104.206 21.782 104.356 21.506C104.506 21.224 104.581 20.897 104.581 20.525Z" fill="white"/>
</svg>
