<svg width="7" height="12" viewBox="0 0 7 12" fill="none" xmlns="http://www.w3.org/2000/svg">
<g clip-path="url(#clip0_719_2560)">
<path fill-rule="evenodd" clip-rule="evenodd" d="M0.278162 0.395642C0.316477 0.35723 0.361994 0.326754 0.412106 0.30596C0.462217 0.285166 0.515939 0.274462 0.570194 0.274462C0.624448 0.274462 0.67817 0.285166 0.728282 0.30596C0.778393 0.326754 0.82391 0.35723 0.862226 0.395642L5.81192 5.34533C5.85033 5.38365 5.8808 5.42916 5.9016 5.47928C5.92239 5.52939 5.93309 5.58311 5.93309 5.63736C5.93309 5.69162 5.92239 5.74534 5.9016 5.79545C5.8808 5.84556 5.85033 5.89108 5.81192 5.92939L0.862226 10.8791C0.784774 10.9565 0.679727 11 0.570194 11C0.460661 11 0.355614 10.9565 0.278162 10.8791C0.20071 10.8016 0.157198 10.6966 0.157198 10.5871C0.157198 10.4775 0.20071 10.3725 0.278162 10.295L4.93665 5.63736L0.278162 0.979705C0.23975 0.94139 0.209274 0.895873 0.18848 0.845761C0.167686 0.79565 0.156982 0.741928 0.156982 0.687674C0.156982 0.633419 0.167686 0.579697 0.18848 0.529586C0.209274 0.479474 0.23975 0.433957 0.278162 0.395642Z" fill="#23A6F0"/>
</g>
<defs>
<clipPath id="clip0_719_2560">
<rect width="6.44118" height="11.451" fill="white" transform="translate(0.156738 0.27451)"/>
</clipPath>
</defs>
</svg>
