<svg width="69" height="75" viewBox="0 0 69 75" fill="none" xmlns="http://www.w3.org/2000/svg">
<path d="M0.661255 10.3714C0.661255 5.03336 4.98857 0.706055 10.3266 0.706055H58.6532C63.9912 0.706055 68.3185 5.03337 68.3185 10.3714V64.4972C68.3185 69.8352 63.9912 74.1625 58.6532 74.1625H10.3266C4.98857 74.1625 0.661255 69.8352 0.661255 64.4972V10.3714Z" fill="#DF5A35"/>
<g clip-path="url(#clip0_1_294)">
<g clip-path="url(#clip1_1_294)">
<path d="M39.9199 33.1145V31.6339C39.9199 31.4982 39.8088 31.3872 39.6731 31.3872H27.8284C27.6926 31.3872 27.5816 31.4982 27.5816 31.6339V33.1145C27.5816 33.2503 27.6926 33.3613 27.8284 33.3613H39.6731C39.8088 33.3613 39.9199 33.2503 39.9199 33.1145ZM27.8284 35.8289C27.6926 35.8289 27.5816 35.94 27.5816 36.0757V37.5563C27.5816 37.692 27.6926 37.8031 27.8284 37.8031H33.504C33.6397 37.8031 33.7507 37.692 33.7507 37.5563V36.0757C33.7507 35.94 33.6397 35.8289 33.504 35.8289H27.8284ZM32.2701 49.7712H25.114V28.0558H42.3875V38.6667C42.3875 38.8025 42.4986 38.9135 42.6343 38.9135H44.3616C44.4973 38.9135 44.6084 38.8025 44.6084 38.6667V26.822C44.6084 26.2761 44.1673 25.835 43.6213 25.835H23.8801C23.3342 25.835 22.8931 26.2761 22.8931 26.822V51.005C22.8931 51.551 23.3342 51.9921 23.8801 51.9921H32.2701C32.4059 51.9921 32.5169 51.881 32.5169 51.7453V50.0179C32.5169 49.8822 32.4059 49.7712 32.2701 49.7712ZM46.018 51.3597L43.1401 48.4818C43.828 47.5719 44.2382 46.4368 44.2382 45.206C44.2382 42.2078 41.8076 39.7772 38.8094 39.7772C35.8112 39.7772 33.3806 42.2078 33.3806 45.206C33.3806 48.2042 35.8112 50.6349 38.8094 50.6349C39.9137 50.6349 40.9378 50.3048 41.7953 49.7403L44.7164 52.6614C44.7657 52.7108 44.8274 52.7324 44.8891 52.7324C44.9508 52.7324 45.0156 52.7077 45.0618 52.6614L46.018 51.7052C46.0408 51.6826 46.0589 51.6556 46.0712 51.626C46.0835 51.5964 46.0898 51.5646 46.0898 51.5325C46.0898 51.5004 46.0835 51.4686 46.0712 51.4389C46.0589 51.4093 46.0408 51.3824 46.018 51.3597ZM38.8094 48.6607C36.9001 48.6607 35.3547 47.1154 35.3547 45.206C35.3547 43.2967 36.9001 41.7513 38.8094 41.7513C40.7188 41.7513 42.2641 43.2967 42.2641 45.206C42.2641 47.1154 40.7188 48.6607 38.8094 48.6607Z" fill="white"/>
</g>
</g>
<defs>
<clipPath id="clip0_1_294">
<rect width="30.929" height="30.929" fill="white" transform="translate(19.0254 21.9697)"/>
</clipPath>
<clipPath id="clip1_1_294">
<rect width="27.0629" height="27.0629" fill="white" transform="translate(20.9592 25.8354)"/>
</clipPath>
</defs>
</svg>
