<svg width="69" height="75" viewBox="0 0 69 75" fill="none" xmlns="http://www.w3.org/2000/svg">
<path d="M0.476562 10.6487C0.476562 5.3107 4.80388 0.983398 10.1419 0.983398H58.4685C63.8065 0.983398 68.1338 5.31071 68.1338 10.6487V64.7745C68.1338 70.1126 63.8065 74.4399 58.4685 74.4399H10.1419C4.80388 74.4399 0.476562 70.1125 0.476562 64.7745V10.6487Z" fill="#B2E3FF"/>
<g clip-path="url(#clip0_1330_1664)">
<path d="M29.1498 36.1133H28.4023C27.3823 36.0764 26.3656 36.2496 25.4153 36.622C24.465 36.9944 23.6014 37.5582 22.8781 38.2783L22.6719 38.5189V45.6325H26.1772V41.5946L26.6497 41.0619L26.8645 40.8128C27.983 39.6637 29.3756 38.8181 30.911 38.3556C30.1423 37.7707 29.536 36.9987 29.1498 36.1133Z" fill="#252B42"/>
<path d="M45.7649 38.2529C45.0416 37.5328 44.178 36.969 43.2277 36.5966C42.2774 36.2242 41.2607 36.051 40.2407 36.0879C39.9278 36.0888 39.6153 36.106 39.3042 36.1394C38.9108 36.9701 38.3211 37.6926 37.5859 38.2443C39.2252 38.6978 40.7101 39.5888 41.8816 40.8217L42.0964 41.0623L42.5604 41.595V45.6415H45.9454V38.4935L45.7649 38.2529Z" fill="#252B42"/>
<path d="M28.375 34.4387H28.6414C28.5176 33.3762 28.7041 32.3005 29.1782 31.3416C29.6523 30.3827 30.3938 29.5815 31.3133 29.0347C30.98 28.5256 30.5202 28.1117 29.9789 27.8336C29.4376 27.5555 28.8333 27.4228 28.2253 27.4484C27.6173 27.4741 27.0264 27.6571 26.5104 27.9798C25.9944 28.3024 25.571 28.7535 25.2817 29.2889C24.9925 29.8243 24.8472 30.4257 24.8602 31.0341C24.8731 31.6425 25.0439 32.2371 25.3557 32.7597C25.6675 33.2823 26.1097 33.7149 26.639 34.0153C27.1683 34.3156 27.7665 34.4734 28.375 34.4731V34.4387Z" fill="#252B42"/>
<path d="M39.8282 33.7942C39.8386 33.9917 39.8386 34.1896 39.8282 34.387C39.9931 34.4132 40.1596 34.4275 40.3265 34.43H40.4897C41.0956 34.3977 41.6828 34.2091 42.1941 33.8825C42.7055 33.5559 43.1235 33.1024 43.4076 32.5663C43.6917 32.0302 43.8321 31.4296 43.8152 30.8231C43.7982 30.2166 43.6246 29.6248 43.311 29.1054C42.9975 28.5859 42.5548 28.1565 42.0261 27.8589C41.4973 27.5613 40.9005 27.4057 40.2938 27.4072C39.6871 27.4088 39.0911 27.5674 38.5638 27.8676C38.0366 28.1678 37.5961 28.5995 37.2852 29.1205C38.0627 29.6282 38.7022 30.321 39.146 31.1367C39.5898 31.9524 39.8243 32.8656 39.8282 33.7942Z" fill="#252B42"/>
<path d="M34.1919 37.6426C36.3129 37.6426 38.0323 35.9232 38.0323 33.8023C38.0323 31.6813 36.3129 29.9619 34.1919 29.9619C32.0709 29.9619 30.3516 31.6813 30.3516 33.8023C30.3516 35.9232 32.0709 37.6426 34.1919 37.6426Z" fill="#252B42"/>
<path d="M34.3975 39.6874C33.2755 39.6421 32.1559 39.8242 31.1062 40.2229C30.0564 40.6215 29.0981 41.2284 28.289 42.0071L28.0742 42.2476V47.686C28.0776 47.8631 28.1158 48.0379 28.1867 48.2002C28.2576 48.3626 28.3598 48.5094 28.4874 48.6323C28.6151 48.7551 28.7657 48.8517 28.9307 48.9163C29.0956 48.981 29.2717 49.0125 29.4488 49.0091H39.3204C39.4975 49.0125 39.6736 48.981 39.8385 48.9163C40.0035 48.8517 40.1541 48.7551 40.2818 48.6323C40.4094 48.5094 40.5116 48.3626 40.5825 48.2002C40.6534 48.0379 40.6916 47.8631 40.695 47.686V42.2648L40.4888 42.0071C39.6849 41.226 38.73 40.6174 37.6826 40.2185C36.6351 39.8197 35.5173 39.6389 34.3975 39.6874Z" fill="#252B42"/>
</g>
<defs>
<clipPath id="clip0_1330_1664">
<rect width="30.929" height="30.929" fill="white" transform="translate(18.8398 22.2471)"/>
</clipPath>
</defs>
</svg>
