<svg width="69" height="75" viewBox="0 0 69 75" fill="none" xmlns="http://www.w3.org/2000/svg">
<path d="M0.5 10.6481C0.5 5.31012 4.82731 0.982819 10.1653 0.982819H58.4919C63.83 0.982819 68.1573 5.31013 68.1573 10.6481V64.774C68.1573 70.112 63.83 74.4393 58.4919 74.4393H10.1653C4.82732 74.4393 0.5 70.112 0.5 64.774V10.6481Z" fill="#B9EAA8"/>
<path d="M41.1798 48.7435C40.5776 48.7505 39.982 48.618 39.4396 48.3565C38.8971 48.095 38.4226 47.7115 38.053 47.236C37.6834 46.7606 37.4288 46.2061 37.3092 45.6159C37.1896 45.0257 37.2081 44.4158 37.3634 43.834L30.3015 39.7976C29.7058 40.3434 28.9567 40.693 28.1558 40.7989C27.3548 40.9049 26.5406 40.7621 25.8235 40.39C25.1063 40.0179 24.5209 39.4344 24.1463 38.7185C23.7718 38.0026 23.6263 37.1889 23.7296 36.3876C23.8328 35.5863 24.1799 34.8361 24.7236 34.2385C25.2674 33.641 25.9817 33.225 26.7697 33.0468C27.5578 32.8686 28.3815 32.937 29.1295 33.2425C29.8774 33.5481 30.5134 34.0761 30.9513 34.755L37.3623 31.0898C37.2794 30.7764 37.2354 30.454 37.2314 30.1298C37.2236 29.2141 37.5315 28.3236 38.1034 27.6083C38.6753 26.893 39.4761 26.3966 40.3712 26.2027C41.2662 26.0088 42.2007 26.1292 43.0173 26.5436C43.834 26.9581 44.4829 27.6413 44.8547 28.4782C45.2266 29.3151 45.2988 30.2545 45.059 31.1384C44.8193 32.0222 44.2824 32.7965 43.5386 33.3308C42.7948 33.8651 41.8897 34.1268 40.9755 34.0718C40.0614 34.0169 39.1941 33.6486 38.5197 33.029L31.5819 36.9943C31.574 37.2876 31.5334 37.5775 31.4589 37.8607L38.5209 41.8959C38.9935 41.4622 39.5649 41.1503 40.1854 40.9873C40.8058 40.8244 41.4567 40.8154 42.0815 40.961C42.7063 41.1065 43.2861 41.4024 43.7707 41.8228C44.2552 42.2433 44.6298 42.7756 44.8621 43.3736C45.0943 43.9717 45.1771 44.6173 45.1032 45.2546C45.0294 45.8918 44.8012 46.5015 44.4384 47.0305C44.0755 47.5596 43.5891 47.9922 43.0213 48.2907C42.4534 48.5892 41.8213 48.7446 41.1798 48.7435ZM41.1798 43.103C40.731 43.103 40.3006 43.2813 39.9833 43.5986C39.6659 43.9159 39.4876 44.3464 39.4876 44.7951C39.4876 45.2439 39.6659 45.6743 39.9833 45.9917C40.3006 46.309 40.731 46.4873 41.1798 46.4873C41.6286 46.4873 42.059 46.309 42.3763 45.9917C42.6937 45.6743 42.8719 45.2439 42.8719 44.7951C42.8719 44.3464 42.6937 43.9159 42.3763 43.5986C42.059 43.2813 41.6286 43.103 41.1798 43.103ZM27.6426 35.2063C27.1938 35.2063 26.7634 35.3846 26.446 35.7019C26.1287 36.0192 25.9504 36.4496 25.9504 36.8984C25.9504 37.3472 26.1287 37.7776 26.446 38.095C26.7634 38.4123 27.1938 38.5906 27.6426 38.5906C28.0914 38.5906 28.5218 38.4123 28.8391 38.095C29.1564 37.7776 29.3347 37.3472 29.3347 36.8984C29.3347 36.4496 29.1564 36.0192 28.8391 35.7019C28.5218 35.3846 28.0914 35.2063 27.6426 35.2063ZM41.1798 28.4377C40.9576 28.4377 40.7375 28.4814 40.5322 28.5665C40.3269 28.6515 40.1404 28.7762 39.9833 28.9333C39.8261 29.0904 39.7015 29.277 39.6164 29.4823C39.5314 29.6876 39.4876 29.9076 39.4876 30.1298C39.4876 30.352 39.5314 30.5721 39.6164 30.7774C39.7015 30.9827 39.8261 31.1692 39.9833 31.3263C40.1404 31.4835 40.3269 31.6081 40.5322 31.6932C40.7375 31.7782 40.9576 31.822 41.1798 31.822C41.6286 31.822 42.059 31.6437 42.3763 31.3263C42.6937 31.009 42.8719 30.5786 42.8719 30.1298C42.8719 29.681 42.6937 29.2506 42.3763 28.9333C42.059 28.6159 41.6286 28.4377 41.1798 28.4377Z" fill="#252B42"/>
</svg>
