<svg width="68" height="75" viewBox="0 0 68 75" fill="none" xmlns="http://www.w3.org/2000/svg">
<path d="M0.107422 10.4939C0.107422 5.15592 4.43473 0.828613 9.77275 0.828613H58.0994C63.4374 0.828613 67.7647 5.15593 67.7647 10.4939V64.6198C67.7647 69.9578 63.4374 74.2851 58.0994 74.2851H9.77275C4.43474 74.2851 0.107422 69.9578 0.107422 64.6197V10.4939Z" fill="#B2E3FF"/>
<g clip-path="url(#clip0_618_489)">
<g clip-path="url(#clip1_618_489)">
<path d="M39.3659 33.2374V31.7568C39.3659 31.6211 39.2549 31.51 39.1191 31.51H27.2744C27.1387 31.51 27.0276 31.6211 27.0276 31.7568V33.2374C27.0276 33.3731 27.1387 33.4842 27.2744 33.4842H39.1191C39.2549 33.4842 39.3659 33.3731 39.3659 33.2374ZM27.2744 35.9518C27.1387 35.9518 27.0276 36.0629 27.0276 36.1986V37.6792C27.0276 37.8149 27.1387 37.9259 27.2744 37.9259H32.95C33.0857 37.9259 33.1968 37.8149 33.1968 37.6792V36.1986C33.1968 36.0629 33.0857 35.9518 32.95 35.9518H27.2744ZM31.7162 49.894H24.56V28.1787H41.8336V38.7896C41.8336 38.9253 41.9446 39.0364 42.0803 39.0364H43.8077C43.9434 39.0364 44.0544 38.9253 44.0544 38.7896V26.9449C44.0544 26.3989 43.6133 25.9578 43.0674 25.9578H23.3262C22.7802 25.9578 22.3391 26.3989 22.3391 26.9449V51.1279C22.3391 51.6738 22.7802 52.1149 23.3262 52.1149H31.7162C31.8519 52.1149 31.9629 52.0039 31.9629 51.8682V50.1408C31.9629 50.0051 31.8519 49.894 31.7162 49.894ZM45.4641 51.4826L42.5862 48.6047C43.274 47.6947 43.6843 46.5596 43.6843 45.3289C43.6843 42.3307 41.2537 39.9001 38.2555 39.9001C35.2573 39.9001 32.8266 42.3307 32.8266 45.3289C32.8266 48.3271 35.2573 50.7577 38.2555 50.7577C39.3597 50.7577 40.3838 50.4277 41.2413 49.8632L44.1624 52.7843C44.2118 52.8336 44.2734 52.8552 44.3351 52.8552C44.3968 52.8552 44.4616 52.8305 44.5079 52.7843L45.4641 51.8281C45.4868 51.8054 45.5049 51.7785 45.5172 51.7489C45.5295 51.7192 45.5359 51.6874 45.5359 51.6553C45.5359 51.6232 45.5295 51.5914 45.5172 51.5618C45.5049 51.5322 45.4868 51.5052 45.4641 51.4826ZM38.2555 48.7836C36.3461 48.7836 34.8007 47.2382 34.8007 45.3289C34.8007 43.4195 36.3461 41.8742 38.2555 41.8742C40.1648 41.8742 41.7102 43.4195 41.7102 45.3289C41.7102 47.2382 40.1648 48.7836 38.2555 48.7836Z" fill="#252B42"/>
</g>
</g>
<defs>
<clipPath id="clip0_618_489">
<rect width="30.929" height="30.929" fill="white" transform="translate(18.4714 22.0923)"/>
</clipPath>
<clipPath id="clip1_618_489">
<rect width="27.0629" height="27.0629" fill="white" transform="translate(20.4053 25.9583)"/>
</clipPath>
</defs>
</svg>
