<svg width="69" height="75" viewBox="0 0 69 75" fill="none" xmlns="http://www.w3.org/2000/svg">
<path d="M0.47583 10.6483C0.47583 5.31024 4.80314 0.982941 10.1412 0.982941H58.4678C63.8058 0.982941 68.1331 5.31025 68.1331 10.6483V64.7741C68.1331 70.1121 63.8058 74.4394 58.4678 74.4394H10.1412C4.80315 74.4394 0.47583 70.1121 0.47583 64.7741V10.6483Z" fill="#B9EAA8"/>
<g clip-path="url(#clip0_618_517)">
<path d="M29.1495 36.1131H28.4021C27.3821 36.0762 26.3654 36.2494 25.4151 36.6218C24.4648 36.9943 23.6012 37.558 22.8778 38.2781L22.6716 38.5187V45.6324H26.1769V41.5944L26.6494 41.0618L26.8642 40.8126C27.9828 39.6635 29.3753 38.8179 30.9108 38.3555C30.142 37.7705 29.5357 36.9986 29.1495 36.1131Z" fill="#252B42"/>
<path d="M45.7642 38.2526C45.0409 37.5325 44.1773 36.9687 43.227 36.5963C42.2767 36.2239 41.26 36.0507 40.2399 36.0876C39.9271 36.0884 39.6145 36.1057 39.3035 36.1391C38.9101 36.9698 38.3203 37.6923 37.5852 38.244C39.2244 38.6975 40.7094 39.5885 41.8809 40.8214L42.0957 41.062L42.5596 41.5946V45.6412H45.9446V38.4932L45.7642 38.2526Z" fill="#252B42"/>
<path d="M28.3755 34.4379H28.6418C28.5181 33.3754 28.7045 32.2997 29.1787 31.3408C29.6528 30.3819 30.3943 29.5807 31.3138 29.0339C30.9805 28.5248 30.5207 28.1109 29.9794 27.8328C29.4381 27.5547 28.8338 27.422 28.2258 27.4476C27.6178 27.4733 27.0268 27.6563 26.5109 27.979C25.9949 28.3016 25.5715 28.7527 25.2822 29.2881C24.993 29.8235 24.8477 30.4249 24.8607 31.0333C24.8736 31.6417 25.0444 32.2363 25.3562 32.7589C25.668 33.2815 26.1102 33.7142 26.6395 34.0145C27.1688 34.3148 27.767 34.4726 28.3755 34.4723V34.4379Z" fill="#252B42"/>
<path d="M39.8287 33.7937C39.8391 33.9911 39.8391 34.189 39.8287 34.3865C39.9936 34.4126 40.1601 34.427 40.327 34.4294H40.4902C41.0961 34.3971 41.6833 34.2085 42.1946 33.8819C42.706 33.5553 43.124 33.1018 43.4081 32.5657C43.6922 32.0296 43.8326 31.429 43.8157 30.8225C43.7987 30.216 43.6251 29.6242 43.3115 29.1048C42.998 28.5853 42.5553 28.1559 42.0266 27.8583C41.4978 27.5607 40.901 27.4051 40.2943 27.4067C39.6876 27.4082 39.0916 27.5668 38.5643 27.867C38.0371 28.1673 37.5965 28.5989 37.2856 29.1199C38.0632 29.6276 38.7026 30.3204 39.1465 31.1361C39.5903 31.9519 39.8248 32.865 39.8287 33.7937Z" fill="#252B42"/>
<path d="M34.1927 37.6424C36.3136 37.6424 38.033 35.9231 38.033 33.8021C38.033 31.6811 36.3136 29.9617 34.1927 29.9617C32.0717 29.9617 30.3523 31.6811 30.3523 33.8021C30.3523 35.9231 32.0717 37.6424 34.1927 37.6424Z" fill="#252B42"/>
<path d="M34.3985 39.6867C33.2765 39.6414 32.1569 39.8236 31.1071 40.2222C30.0574 40.6209 29.0991 41.2278 28.29 42.0064L28.0752 42.247V47.6853C28.0785 47.8625 28.1168 48.0372 28.1877 48.1996C28.2586 48.362 28.3608 48.5088 28.4884 48.6316C28.6161 48.7545 28.7667 48.851 28.9316 48.9157C29.0966 48.9803 29.2727 49.0118 29.4498 49.0084H39.3213C39.4985 49.0118 39.6746 48.9803 39.8395 48.9157C40.0045 48.851 40.1551 48.7545 40.2827 48.6316C40.4104 48.5088 40.5126 48.362 40.5835 48.1996C40.6544 48.0372 40.6926 47.8625 40.696 47.6853V42.2642L40.4898 42.0064C39.6859 41.2254 38.731 40.6168 37.6835 40.2179C36.6361 39.819 35.5182 39.6383 34.3985 39.6867Z" fill="#252B42"/>
</g>
<defs>
<clipPath id="clip0_618_517">
<rect width="30.929" height="30.929" fill="white" transform="translate(18.8398 22.2466)"/>
</clipPath>
</defs>
</svg>
