<svg width="69" height="75" viewBox="0 0 69 75" fill="none" xmlns="http://www.w3.org/2000/svg">
<path d="M0.475708 10.6482C0.475708 5.31021 4.80302 0.98291 10.141 0.98291H58.4677C63.8057 0.98291 68.133 5.31022 68.133 10.6482V64.7741C68.133 70.1121 63.8057 74.4394 58.4677 74.4394H10.141C4.80303 74.4394 0.475708 70.1121 0.475708 64.774V10.6482Z" fill="#DF5A35"/>
<g clip-path="url(#clip0_1_322)">
<path d="M29.1495 36.1133H28.4021C27.3821 36.0764 26.3654 36.2496 25.4151 36.622C24.4648 36.9944 23.6012 37.5582 22.8778 38.2783L22.6716 38.5189V45.6325H26.1769V41.5946L26.6494 41.0619L26.8642 40.8128C27.9828 39.6637 29.3753 38.8181 30.9108 38.3556C30.142 37.7707 29.5357 36.9987 29.1495 36.1133Z" fill="white"/>
<path d="M45.7642 38.2524C45.0409 37.5323 44.1773 36.9685 43.227 36.5961C42.2767 36.2237 41.26 36.0505 40.2399 36.0874C39.9271 36.0883 39.6145 36.1055 39.3035 36.1389C38.9101 36.9696 38.3203 37.6921 37.5852 38.2438C39.2244 38.6973 40.7094 39.5883 41.8809 40.8212L42.0957 41.0618L42.5596 41.5945V45.641H45.9446V38.493L45.7642 38.2524Z" fill="white"/>
<path d="M28.3756 34.4377H28.642C28.5182 33.3752 28.7047 32.2995 29.1788 31.3406C29.6529 30.3817 30.3945 29.5805 31.3139 29.0337C30.9806 28.5246 30.5208 28.1107 29.9795 27.8326C29.4382 27.5546 28.8339 27.4218 28.2259 27.4475C27.6179 27.4731 27.027 27.6562 26.511 27.9788C25.995 28.3014 25.5716 28.7525 25.2824 29.2879C24.9931 29.8233 24.8478 30.4247 24.8608 31.0331C24.8738 31.6415 25.0445 32.2361 25.3563 32.7587C25.6681 33.2813 26.1103 33.714 26.6396 34.0143C27.1689 34.3147 27.7671 34.4724 28.3756 34.4721V34.4377Z" fill="white"/>
<path d="M39.8287 33.7938C39.8391 33.9912 39.8391 34.1891 39.8287 34.3866C39.9936 34.4127 40.1601 34.4271 40.327 34.4295H40.4902C41.0961 34.3972 41.6833 34.2086 42.1946 33.882C42.706 33.5554 43.124 33.1019 43.4081 32.5658C43.6922 32.0297 43.8326 31.4291 43.8157 30.8226C43.7987 30.2161 43.6251 29.6243 43.3115 29.1049C42.998 28.5854 42.5553 28.156 42.0266 27.8584C41.4978 27.5608 40.901 27.4052 40.2943 27.4067C39.6876 27.4083 39.0916 27.5669 38.5643 27.8671C38.0371 28.1674 37.5965 28.599 37.2856 29.12C38.0632 29.6277 38.7026 30.3205 39.1465 31.1362C39.5903 31.952 39.8248 32.8651 39.8287 33.7938Z" fill="white"/>
<path d="M34.1925 37.6426C36.3135 37.6426 38.0329 35.9232 38.0329 33.8023C38.0329 31.6813 36.3135 29.9619 34.1925 29.9619C32.0716 29.9619 30.3522 31.6813 30.3522 33.8023C30.3522 35.9232 32.0716 37.6426 34.1925 37.6426Z" fill="white"/>
<path d="M34.3983 39.6869C33.2763 39.6416 32.1568 39.8238 31.107 40.2224C30.0572 40.621 29.099 41.2279 28.2899 42.0066L28.0751 42.2471V47.6855C28.0784 47.8626 28.1166 48.0374 28.1875 48.1998C28.2584 48.3621 28.3606 48.5089 28.4883 48.6318C28.6159 48.7547 28.7666 48.8512 28.9315 48.9158C29.0965 48.9805 29.2726 49.012 29.4497 49.0086H39.3212C39.4984 49.012 39.6744 48.9805 39.8394 48.9158C40.0044 48.8512 40.155 48.7547 40.2826 48.6318C40.4103 48.5089 40.5125 48.3621 40.5834 48.1998C40.6543 48.0374 40.6925 47.8626 40.6958 47.6855V42.2643L40.4896 42.0066C39.6858 41.2256 38.7308 40.6169 37.6834 40.2181C36.636 39.8192 35.5181 39.6384 34.3983 39.6869Z" fill="white"/>
</g>
<defs>
<clipPath id="clip0_1_322">
<rect width="30.929" height="30.929" fill="white" transform="translate(18.8398 22.2466)"/>
</clipPath>
</defs>
</svg>
