<svg width="69" height="75" viewBox="0 0 69 75" fill="none" xmlns="http://www.w3.org/2000/svg">
<path d="M0.5 10.6487C0.5 5.3107 4.82731 0.983398 10.1653 0.983398H58.4919C63.83 0.983398 68.1573 5.31071 68.1573 10.6487V64.7745C68.1573 70.1126 63.83 74.4399 58.4919 74.4399H10.1653C4.82732 74.4399 0.5 70.1125 0.5 64.7745V10.6487Z" fill="#B2E3FF"/>
<path d="M41.1798 48.7444C40.5776 48.7514 39.982 48.6189 39.4396 48.3574C38.8971 48.0959 38.4226 47.7124 38.053 47.237C37.6834 46.7615 37.4288 46.207 37.3092 45.6168C37.1896 45.0266 37.2081 44.4167 37.3634 43.8349L30.3015 39.7986C29.7058 40.3443 28.9567 40.6939 28.1558 40.7998C27.3548 40.9058 26.5406 40.763 25.8235 40.3909C25.1063 40.0188 24.5209 39.4353 24.1463 38.7194C23.7718 38.0035 23.6263 37.1899 23.7296 36.3885C23.8328 35.5872 24.1799 34.837 24.7236 34.2394C25.2674 33.6419 25.9817 33.2259 26.7697 33.0477C27.5578 32.8696 28.3815 32.9379 29.1295 33.2434C29.8774 33.549 30.5134 34.077 30.9513 34.7559L37.3623 31.0907C37.2794 30.7773 37.2354 30.4549 37.2314 30.1307C37.2236 29.215 37.5315 28.3245 38.1034 27.6092C38.6753 26.8939 39.4761 26.3975 40.3712 26.2036C41.2662 26.0097 42.2007 26.1301 43.0173 26.5446C43.834 26.959 44.4829 27.6422 44.8547 28.4791C45.2266 29.316 45.2988 30.2554 45.059 31.1393C44.8193 32.0232 44.2824 32.7974 43.5386 33.3317C42.7948 33.866 41.8897 34.1277 40.9755 34.0728C40.0614 34.0178 39.1941 33.6495 38.5197 33.03L31.5819 36.9952C31.574 37.2885 31.5334 37.5785 31.4589 37.8616L38.5209 41.8968C38.9935 41.4631 39.5649 41.1512 40.1854 40.9883C40.8058 40.8253 41.4567 40.8163 42.0815 40.9619C42.7063 41.1075 43.2861 41.4033 43.7707 41.8238C44.2552 42.2442 44.6298 42.7765 44.8621 43.3745C45.0943 43.9726 45.1771 44.6182 45.1032 45.2555C45.0294 45.8928 44.8012 46.5024 44.4384 47.0315C44.0755 47.5605 43.5891 47.9931 43.0213 48.2916C42.4534 48.5901 41.8213 48.7455 41.1798 48.7444ZM41.1798 43.1039C40.731 43.1039 40.3006 43.2822 39.9833 43.5995C39.6659 43.9169 39.4876 44.3473 39.4876 44.7961C39.4876 45.2448 39.6659 45.6752 39.9833 45.9926C40.3006 46.3099 40.731 46.4882 41.1798 46.4882C41.6286 46.4882 42.059 46.3099 42.3763 45.9926C42.6937 45.6752 42.8719 45.2448 42.8719 44.7961C42.8719 44.3473 42.6937 43.9169 42.3763 43.5995C42.059 43.2822 41.6286 43.1039 41.1798 43.1039ZM27.6426 35.2072C27.1938 35.2072 26.7634 35.3855 26.446 35.7028C26.1287 36.0202 25.9504 36.4506 25.9504 36.8993C25.9504 37.3481 26.1287 37.7785 26.446 38.0959C26.7634 38.4132 27.1938 38.5915 27.6426 38.5915C28.0914 38.5915 28.5218 38.4132 28.8391 38.0959C29.1564 37.7785 29.3347 37.3481 29.3347 36.8993C29.3347 36.4506 29.1564 36.0202 28.8391 35.7028C28.5218 35.3855 28.0914 35.2072 27.6426 35.2072ZM41.1798 28.4386C40.9576 28.4386 40.7375 28.4823 40.5322 28.5674C40.3269 28.6524 40.1404 28.7771 39.9833 28.9342C39.8261 29.0913 39.7015 29.2779 39.6164 29.4832C39.5314 29.6885 39.4876 29.9085 39.4876 30.1307C39.4876 30.3529 39.5314 30.573 39.6164 30.7783C39.7015 30.9836 39.8261 31.1701 39.9833 31.3273C40.1404 31.4844 40.3269 31.609 40.5322 31.6941C40.7375 31.7791 40.9576 31.8229 41.1798 31.8229C41.6286 31.8229 42.059 31.6446 42.3763 31.3273C42.6937 31.0099 42.8719 30.5795 42.8719 30.1307C42.8719 29.6819 42.6937 29.2515 42.3763 28.9342C42.059 28.6169 41.6286 28.4386 41.1798 28.4386Z" fill="#252B42"/>
</svg>
