<svg width="69" height="75" viewBox="0 0 69 75" fill="none" xmlns="http://www.w3.org/2000/svg">
<path d="M0.499878 10.6482C0.499878 5.31021 4.82719 0.98291 10.1652 0.98291H58.4918C63.8298 0.98291 68.1572 5.31022 68.1572 10.6482V64.7741C68.1572 70.1121 63.8298 74.4394 58.4918 74.4394H10.1652C4.8272 74.4394 0.499878 70.1121 0.499878 64.774V10.6482Z" fill="#DF5A35"/>
<path d="M41.1799 48.7434C40.5778 48.7504 39.9822 48.6179 39.4397 48.3564C38.8973 48.0949 38.4227 47.7114 38.0531 47.236C37.6835 46.7605 37.4289 46.206 37.3093 45.6158C37.1897 45.0256 37.2083 44.4158 37.3635 43.8339L30.3016 39.7976C29.7059 40.3434 28.9568 40.6929 28.1559 40.7989C27.3549 40.9048 26.5408 40.7621 25.8236 40.39C25.1065 40.0178 24.521 39.4343 24.1465 38.7185C23.7719 38.0026 23.6265 37.1889 23.7297 36.3876C23.833 35.5863 24.18 34.836 24.7238 34.2385C25.2675 33.6409 25.9818 33.2249 26.7698 33.0467C27.5579 32.8686 28.3817 32.9369 29.1296 33.2424C29.8775 33.548 30.5135 34.076 30.9514 34.755L37.3624 31.0898C37.2795 30.7764 37.2355 30.4539 37.2316 30.1298C37.2237 29.214 37.5316 28.3235 38.1035 27.6082C38.6754 26.8929 39.4763 26.3965 40.3713 26.2026C41.2663 26.0087 42.2008 26.1291 43.0175 26.5436C43.8341 26.958 44.483 27.6412 44.8549 28.4781C45.2267 29.315 45.2989 30.2545 45.0592 31.1383C44.8195 32.0222 44.2825 32.7965 43.5387 33.3307C42.795 33.865 41.8898 34.1267 40.9757 34.0718C40.0615 34.0168 39.1942 33.6485 38.5198 33.029L31.582 36.9943C31.5741 37.2876 31.5335 37.5775 31.4591 37.8606L38.521 41.8959C38.9936 41.4621 39.565 41.1502 40.1855 40.9873C40.806 40.8244 41.4568 40.8153 42.0816 40.9609C42.7064 41.1065 43.2862 41.4023 43.7708 41.8228C44.2553 42.2432 44.63 42.7756 44.8622 43.3736C45.0944 43.9716 45.1772 44.6173 45.1033 45.2545C45.0295 45.8918 44.8013 46.5014 44.4385 47.0305C44.0757 47.5596 43.5892 47.9921 43.0214 48.2906C42.4535 48.5891 41.8214 48.7446 41.1799 48.7434ZM41.1799 43.1029C40.7311 43.1029 40.3007 43.2812 39.9834 43.5985C39.666 43.9159 39.4878 44.3463 39.4878 44.7951C39.4878 45.2439 39.666 45.6743 39.9834 45.9916C40.3007 46.309 40.7311 46.4872 41.1799 46.4872C41.6287 46.4872 42.0591 46.309 42.3764 45.9916C42.6938 45.6743 42.8721 45.2439 42.8721 44.7951C42.8721 44.3463 42.6938 43.9159 42.3764 43.5985C42.0591 43.2812 41.6287 43.1029 41.1799 43.1029ZM27.6427 35.2062C27.1939 35.2062 26.7635 35.3845 26.4462 35.7018C26.1288 36.0192 25.9505 36.4496 25.9505 36.8984C25.9505 37.3472 26.1288 37.7776 26.4462 38.0949C26.7635 38.4122 27.1939 38.5905 27.6427 38.5905C28.0915 38.5905 28.5219 38.4122 28.8392 38.0949C29.1566 37.7776 29.3348 37.3472 29.3348 36.8984C29.3348 36.4496 29.1566 36.0192 28.8392 35.7018C28.5219 35.3845 28.0915 35.2062 27.6427 35.2062ZM41.1799 28.4376C40.9577 28.4376 40.7376 28.4814 40.5323 28.5664C40.327 28.6514 40.1405 28.7761 39.9834 28.9332C39.8262 29.0904 39.7016 29.2769 39.6166 29.4822C39.5315 29.6875 39.4878 29.9075 39.4878 30.1298C39.4878 30.352 39.5315 30.572 39.6166 30.7773C39.7016 30.9826 39.8262 31.1692 39.9834 31.3263C40.1405 31.4834 40.327 31.6081 40.5323 31.6931C40.7376 31.7781 40.9577 31.8219 41.1799 31.8219C41.6287 31.8219 42.0591 31.6436 42.3764 31.3263C42.6938 31.0089 42.8721 30.5785 42.8721 30.1298C42.8721 29.681 42.6938 29.2506 42.3764 28.9332C42.0591 28.6159 41.6287 28.4376 41.1799 28.4376Z" fill="white"/>
</svg>
